<?xml version="1.0" standalone="no"?>
<!DOCTYPE svg PUBLIC "-//W3C//DTD SVG 20010904//EN"
 "http://www.w3.org/TR/2001/REC-SVG-20010904/DTD/svg10.dtd">
<svg version="1.0" xmlns="http://www.w3.org/2000/svg"
 width="480.000000pt" height="270.000000pt" viewBox="0 0 480.000000 270.000000"
 preserveAspectRatio="xMidYMid meet">

<g transform="translate(0.000000,270.000000) scale(0.100000,-0.100000)"
fill="#000000" stroke="none">
<path d="M21 2559 c-21 -52 -21 -52 -21 -1105 0 -580 4 -1054 8 -1054 5 0 35
9 68 19 150 50 487 151 500 151 8 0 63 16 122 35 l107 35 1595 -3 1595 -2 115
-37 c132 -43 510 -157 618 -187 l72 -20 0 1074 c0 951 -2 1074 -15 1069 -10
-4 -15 0 -15 10 0 9 -10 27 -23 40 -31 31 -69 25 -150 -24 -79 -48 -95 -71
-109 -152 -11 -67 -11 -67 -70 -96 -5 -2 -8 5 -8 16 0 54 -42 68 -115 38 -42
-18 -62 -48 -71 -106 -7 -49 -20 -80 -32 -80 -5 0 -16 16 -25 35 -23 48 -56
46 -135 -5 -63 -40 -66 -44 -77 -131 l-6 -46 -48 -1 c-47 -1 -49 0 -67 39 -23
52 -45 63 -127 62 -76 -1 -87 -7 -111 -60 -16 -37 -18 -38 -66 -35 -45 4 -49
6 -55 33 -11 47 -30 59 -95 59 -64 0 -85 -13 -102 -62 -10 -27 -13 -28 -77
-28 l-66 0 -18 41 c-17 40 -18 40 -65 37 -42 -3 -50 -7 -71 -41 -23 -35 -27
-37 -77 -37 l-52 0 -23 48 c-20 39 -29 47 -55 50 -18 2 -47 -1 -65 -6 -28 -7
-36 -15 -45 -48 l-11 -39 -80 -3 -80 -3 -6 28 c-12 60 -27 68 -124 68 -117 0
-139 -7 -154 -49 l-13 -35 -100 -3 c-109 -4 -99 -8 -155 60 -17 18 -29 22 -83
22 -92 0 -106 -6 -120 -51 -11 -38 -12 -39 -59 -39 -45 0 -48 2 -59 35 -6 19
-20 40 -30 45 -28 15 -195 13 -207 -2 -6 -7 -15 -26 -20 -43 -9 -27 -14 -30
-60 -33 -47 -3 -51 -1 -62 26 -27 64 -43 72 -144 71 -120 -1 -137 -7 -164 -54
-22 -40 -41 -53 -80 -54 -19 -1 -22 6 -28 64 -7 58 -11 69 -39 89 -45 34 -76
49 -119 57 -36 6 -39 5 -54 -27 -14 -27 -19 -31 -35 -23 -12 6 -18 21 -18 42
0 18 -5 48 -10 68 -9 31 -18 40 -60 58 -27 11 -62 21 -78 21 -26 0 -31 -5 -39
-35 l-8 -35 -31 19 c-27 16 -32 27 -43 90 -12 65 -16 74 -54 105 -53 42 -139
86 -170 86 -20 0 -28 -10 -46 -51z m73 22 c6 -10 -24 -91 -34 -91 -3 0 -13 6
-22 13 -15 11 -15 15 -1 50 14 35 44 50 57 28z m4652 -23 c15 -30 15 -32 -2
-45 -10 -7 -23 -12 -28 -10 -12 4 -36 73 -29 81 16 16 44 3 59 -26z m-4323
-194 c12 -4 13 -12 4 -40 -6 -19 -13 -34 -16 -34 -19 1 -28 19 -24 48 5 33 10
36 36 26z m3971 -26 c6 -29 -4 -47 -25 -48 -8 0 -28 68 -21 74 16 17 40 4 46
-26z m-3729 -135 c-8 -36 -18 -45 -38 -38 -23 10 -2 65 25 65 17 0 19 -4 13
-27z m3493 -3 c9 -25 8 -31 -8 -40 -15 -8 -19 -5 -24 14 -3 13 -9 31 -12 40
-4 11 0 16 14 16 13 0 24 -10 30 -30z m-1719 -90 c20 -10 47 -67 38 -76 -3 -4
-13 10 -21 30 l-15 36 -94 0 -95 0 -12 -30 c-7 -16 -16 -30 -21 -30 -11 0 -11
1 2 38 6 19 19 32 32 35 44 9 169 7 186 -3z m371 -20 c7 -17 10 -33 6 -37 -3
-3 -6 -1 -6 5 0 25 -33 42 -81 42 -31 0 -48 4 -44 10 3 6 30 10 59 10 50 0 54
-2 66 -30z m-1220 12 c0 -8 -11 -9 -126 -11 -59 -1 -62 -2 -78 -33 -18 -38
-21 -26 -5 21 l11 31 99 0 c54 0 99 -4 99 -8z m325 2 c-11 -2 -46 -6 -78 -9
-49 -6 -60 -10 -67 -30 -12 -33 -34 -45 -25 -14 3 13 9 32 11 42 5 15 17 17
92 16 48 -1 78 -3 67 -5z m1535 -15 c6 -11 10 -25 7 -32 -2 -7 -9 -2 -16 11
-10 19 -20 22 -71 22 -33 0 -60 4 -60 10 0 6 28 10 65 10 55 0 66 -3 75 -21z
m-350 -8 c14 -28 12 -38 -4 -16 -10 13 -24 18 -55 17 -26 -1 -40 2 -36 8 3 6
24 10 45 10 29 0 42 -5 50 -19z m-137 -146 c4 -8 2 -17 -3 -20 -6 -4 -10 0
-10 9 0 8 -6 17 -12 19 -8 4 -7 6 3 6 9 1 19 -6 22 -14z m-235 -21 c17 -11 22
-24 22 -53 0 -39 -12 -52 -48 -50 -13 0 -11 3 6 11 30 15 30 61 0 82 -12 9
-38 16 -58 17 -28 0 -31 2 -15 9 24 10 61 3 93 -16z m-517 6 c10 -6 19 -21 18
-33 0 -22 0 -22 -9 -1 -18 46 -65 36 -55 -12 5 -22 4 -25 -4 -14 -32 44 2 85
50 60z m1173 0 c22 -8 26 -16 26 -48 0 -21 -6 -47 -14 -58 -21 -28 -28 -13
-10 20 21 42 10 64 -39 76 -63 16 -65 18 -25 19 20 1 48 -3 62 -9z m-2034 -10
c0 -5 -11 -10 -24 -10 -13 0 -29 -7 -36 -15 -11 -13 -9 -20 10 -40 29 -31 22
-42 -8 -15 -38 36 -21 90 28 90 17 0 30 -4 30 -10z m405 -9 c-6 -5 -19 -11
-30 -13 -15 -2 -22 -14 -26 -43 l-6 -40 -2 47 c-1 49 5 56 49 57 14 1 20 -3
15 -8z m175 5 c0 -2 -7 -6 -15 -10 -8 -3 -15 -1 -15 4 0 6 7 10 15 10 8 0 15
-2 15 -4z m-370 -30 c0 -3 -4 -8 -10 -11 -5 -3 -10 -1 -10 4 0 6 5 11 10 11 6
0 10 -2 10 -4z m848 -21 c4 -20 4 -20 -12 0 -16 20 -16 20 -31 1 -12 -16 -15
-17 -15 -4 0 32 53 35 58 3z m692 -2 c0 -11 -3 -14 -8 -7 -4 6 -14 14 -22 17
-10 4 -8 6 8 6 15 1 22 -5 22 -16z m497 1 c3 -8 1 -20 -6 -27 -8 -8 -11 -7
-11 4 0 9 -10 21 -22 27 -23 10 -22 11 5 11 16 1 30 -5 34 -15z m-687 -9 c0
-8 -2 -15 -4 -15 -2 0 -6 7 -10 15 -3 8 -1 15 4 15 6 0 10 -7 10 -15z m-850
-9 c0 -2 -7 -6 -15 -10 -8 -3 -15 -1 -15 4 0 6 7 10 15 10 8 0 15 -2 15 -4z
m-1207 -93 c-7 -2 -19 -2 -25 0 -7 3 -2 5 12 5 14 0 19 -2 13 -5z m350 0 c-7
-2 -19 -2 -25 0 -7 3 -2 5 12 5 14 0 19 -2 13 -5z m564 1 c-3 -3 -12 -4 -19
-1 -8 3 -5 6 6 6 11 1 17 -2 13 -5z m360 0 c-3 -3 -12 -4 -19 -1 -8 3 -5 6 6
6 11 1 17 -2 13 -5z m570 0 c-3 -3 -12 -4 -19 -1 -8 3 -5 6 6 6 11 1 17 -2 13
-5z m350 0 c-3 -3 -12 -4 -19 -1 -8 3 -5 6 6 6 11 1 17 -2 13 -5z m560 0 c-3
-3 -12 -4 -19 -1 -8 3 -5 6 6 6 11 1 17 -2 13 -5z m350 0 c-3 -3 -12 -4 -19
-1 -8 3 -5 6 6 6 11 1 17 -2 13 -5z m-3207 -54 c0 -5 -7 -10 -15 -10 -8 0 -15
5 -15 10 0 6 7 10 15 10 8 0 15 -4 15 -10z m380 -10 c0 -13 -7 -20 -20 -20
-19 0 -27 20 -13 33 13 14 33 6 33 -13z m603 0 c4 -15 0 -20 -14 -20 -18 0
-26 20 -12 33 11 12 21 8 26 -13z m377 0 c0 -11 -7 -20 -15 -20 -8 0 -15 9
-15 20 0 11 7 20 15 20 8 0 15 -9 15 -20z m604 4 c9 -22 8 -24 -9 -24 -8 0
-15 9 -15 20 0 24 15 27 24 4z m379 -4 c4 -15 0 -20 -14 -20 -12 0 -19 7 -19
20 0 11 6 20 14 20 7 0 16 -9 19 -20z m597 0 c0 -13 -7 -20 -20 -20 -19 0 -27
20 -13 33 13 14 33 6 33 -13z m370 10 c0 -5 -7 -10 -15 -10 -8 0 -15 5 -15 10
0 6 7 10 15 10 8 0 15 -4 15 -10z m-3022 -78 c3 -27 0 -32 -17 -32 -17 0 -21
6 -21 36 0 28 3 35 18 32 11 -2 18 -14 20 -36z m652 -3 c0 -24 -4 -30 -17 -27
-22 4 -30 47 -12 59 20 12 29 1 29 -32z m402 5 c-5 -35 -7 -38 -27 -31 -8 4
-15 17 -15 30 0 29 6 36 28 33 12 -2 16 -11 14 -32z m648 1 c0 -44 -26 -48
-32 -5 -5 33 -2 40 19 40 8 0 13 -12 13 -35z m408 -3 c3 -26 0 -32 -16 -32
-14 0 -21 8 -24 30 -5 34 -1 42 22 38 9 -2 16 -16 18 -36z m635 25 c-2 -4 -3
-18 -3 -32 0 -36 -27 -32 -32 5 -3 17 -3 32 -1 34 7 6 38 0 36 -7z m-3156 -3
c-3 -3 -12 -4 -19 -1 -8 3 -5 6 6 6 11 1 17 -2 13 -5z m476 -1 c-7 -2 -21 -2
-30 0 -10 3 -4 5 12 5 17 0 24 -2 18 -5z m60 0 c-7 -2 -21 -2 -30 0 -10 3 -4
5 12 5 17 0 24 -2 18 -5z m80 0 c-7 -2 -19 -2 -25 0 -7 3 -2 5 12 5 14 0 19
-2 13 -5z m87 0 c-24 -3 -48 -10 -52 -16 -5 -8 -8 -6 -8 6 0 14 8 17 53 15
l52 -1 -45 -4z m80 -10 c0 -10 -4 -14 -8 -8 -4 6 -11 13 -16 18 -5 4 -2 7 7 7
10 0 17 -8 17 -17z m130 10 c-59 -3 -97 -8 -102 -16 -5 -8 -8 -7 -8 6 0 15 11
17 103 15 l102 -2 -95 -3z m618 0 c-10 -2 -26 -2 -35 0 -10 3 -2 5 17 5 19 0
27 -2 18 -5z m100 0 c-10 -2 -28 -2 -40 0 -13 2 -5 4 17 4 22 1 32 -1 23 -4z
m52 -10 c0 -10 -4 -14 -8 -8 -4 6 -11 13 -16 18 -5 4 -2 7 7 7 10 0 17 -8 17
-17z m67 11 c-3 -3 -12 -4 -19 -1 -8 3 -5 6 6 6 11 1 17 -2 13 -5z m46 -1 c-7
-2 -19 -2 -25 0 -7 3 -2 5 12 5 14 0 19 -2 13 -5z m44 1 c-3 -3 -12 -4 -19 -1
-8 3 -5 6 6 6 11 1 17 -2 13 -5z m56 -1 c-7 -2 -19 -2 -25 0 -7 3 -2 5 12 5
14 0 19 -2 13 -5z m90 0 c-13 -2 -35 -2 -50 0 -16 2 -5 4 22 4 28 0 40 -2 28
-4z m70 0 c-7 -2 -21 -2 -30 0 -10 3 -4 5 12 5 17 0 24 -2 18 -5z m635 0 c-26
-2 -71 -2 -100 0 -29 2 -8 3 47 3 55 0 79 -1 53 -3z m159 0 c-20 -2 -52 -2
-70 0 -17 2 0 4 38 4 39 0 53 -2 32 -4z m116 0 c-13 -2 -35 -2 -50 0 -16 2 -5
4 22 4 28 0 40 -2 28 -4z m115 0 c-15 -2 -42 -2 -60 0 -18 2 -6 4 27 4 33 0
48 -2 33 -4z m469 1 c-3 -3 -12 -4 -19 -1 -8 3 -5 6 6 6 11 1 17 -2 13 -5z
m-3247 -83 c0 -54 -35 -71 -42 -21 -5 34 -2 40 24 40 11 0 18 -7 18 -19z m700
-18 l0 -38 -20 25 c-25 32 -25 50 0 50 16 0 20 -7 20 -37z m443 25 c-2 -5 -3
-19 -3 -33 0 -38 -36 -34 -42 5 -3 17 -2 33 1 35 8 8 46 1 44 -7z m697 -29 c0
-33 -3 -40 -17 -37 -13 2 -19 14 -21 41 -3 32 0 37 17 37 18 0 21 -6 21 -41z
m440 1 c0 -33 -4 -40 -19 -40 -21 0 -31 19 -31 56 0 19 5 24 25 24 23 0 25 -4
25 -40z m680 32 c0 -4 -9 -13 -20 -20 -18 -11 -20 -10 -20 8 0 13 7 20 20 20
11 0 20 -3 20 -8z m-3403 -8 c-3 -3 -12 -4 -19 -1 -8 3 -5 6 6 6 11 1 17 -2
13 -5z m496 -1 c-7 -2 -19 -2 -25 0 -7 3 -2 5 12 5 14 0 19 -2 13 -5z m74 1
c-3 -3 -12 -4 -19 -1 -8 3 -5 6 6 6 11 1 17 -2 13 -5z m283 -4 c0 -5 -7 -7
-15 -4 -8 4 -15 8 -15 10 0 2 7 4 15 4 8 0 15 -4 15 -10z m107 4 c-3 -3 -12
-4 -19 -1 -8 3 -5 6 6 6 11 1 17 -2 13 -5z m863 -4 c0 -5 -7 -7 -15 -4 -8 4
-15 8 -15 10 0 2 7 4 15 4 8 0 15 -4 15 -10z m243 3 c-7 -2 -19 -2 -25 0 -7 3
-2 5 12 5 14 0 19 -2 13 -5z m104 1 c-3 -3 -12 -4 -19 -1 -8 3 -5 6 6 6 11 1
17 -2 13 -5z m696 -1 c-7 -2 -21 -2 -30 0 -10 3 -4 5 12 5 17 0 24 -2 18 -5z
m310 0 c-7 -2 -19 -2 -25 0 -7 3 -2 5 12 5 14 0 19 -2 13 -5z m80 0 c-7 -2
-19 -2 -25 0 -7 3 -2 5 12 5 14 0 19 -2 13 -5z m574 1 c-3 -3 -12 -4 -19 -1
-8 3 -5 6 6 6 11 1 17 -2 13 -5z m-3617 -34 c0 -5 -26 -10 -57 -11 -71 0 -129
-19 -124 -39 2 -8 6 -23 9 -34 8 -30 -20 -14 -31 17 -7 21 -5 34 7 52 15 24
22 25 106 25 53 0 90 -4 90 -10z m570 0 c11 -7 6 -10 -20 -10 -19 0 -42 -4
-50 -10 -12 -7 -12 -12 4 -29 11 -12 15 -21 9 -21 -5 0 -18 9 -27 19 -37 41
33 84 84 51z m310 0 c0 -6 -6 -10 -12 -9 -7 1 -35 1 -62 0 -46 -1 -48 -2 -44
-26 4 -20 3 -23 -8 -14 -17 14 -18 31 -2 47 15 15 128 16 128 2z m325 0 c-11
-5 -34 -9 -51 -9 -34 -1 -50 -21 -31 -40 8 -8 8 -11 0 -11 -18 0 -24 29 -10
50 9 16 22 20 62 19 37 0 45 -3 30 -9z m335 6 c0 -2 3 -12 6 -20 6 -14 2 -14
-25 1 -31 18 -32 18 -51 -4 -21 -26 -30 -29 -30 -10 0 23 23 37 62 37 21 0 38
-2 38 -4z m390 -15 c16 -31 12 -36 -11 -15 -24 22 -58 20 -76 -3 -17 -22 -27
-10 -13 16 15 29 85 30 100 2z m404 0 c10 -11 15 -25 11 -31 -5 -8 -12 -5 -22
9 -10 14 -25 21 -49 21 -19 0 -34 5 -34 10 0 19 76 11 94 -9z m700 -3 c15 -21
13 -38 -5 -38 -5 0 -8 3 -8 8 4 23 -4 32 -26 32 -14 0 -25 5 -25 10 0 19 49
10 64 -12z m218 13 c13 -2 29 -41 21 -54 -5 -8 -9 -3 -13 13 -5 21 -12 25 -48
28 -23 2 -40 7 -37 12 5 8 31 8 77 1z m-2960 -12 c-30 -9 -33 -13 -28 -37 6
-26 6 -26 -9 -8 -29 38 -18 56 34 55 l36 -1 -33 -9z m2408 -10 c14 -26 7 -35
-10 -14 -8 10 -30 15 -64 15 -37 0 -47 3 -36 10 8 5 34 10 57 10 33 0 45 -5
53 -21z m780 1 c11 -21 6 -40 -10 -40 -5 0 -7 6 -5 13 8 20 -8 35 -40 40 -27
4 -27 4 7 6 28 1 40 -4 48 -19z m-1683 4 c-3 -3 -12 -4 -19 -1 -8 3 -5 6 6 6
11 1 17 -2 13 -5z m726 -245 c26 -17 49 -34 51 -38 2 -3 -5 -28 -16 -54 -19
-43 -24 -47 -54 -47 -19 0 -34 5 -34 10 0 6 12 9 27 8 23 -3 29 3 42 36 l15
39 -35 28 c-19 16 -42 29 -52 29 -10 0 -15 5 -12 10 9 15 18 13 68 -21z
m-1563 -15 c23 -12 20 -13 -36 -7 l-61 6 -6 -39 c-4 -23 -2 -43 6 -52 9 -12 8
-14 -8 -10 -17 3 -20 12 -20 56 1 35 6 57 15 63 18 11 75 3 110 -17z m-472 10
c36 -10 25 -19 -23 -19 -57 -1 -60 12 -5 24 3 0 15 -2 28 -5z m1279 -9 c2 -6
-15 -10 -37 -10 -39 0 -47 5 -33 19 10 10 66 3 70 -9z m241 -37 c2 -27 -1 -48
-5 -48 -4 0 -8 17 -8 37 0 37 -1 38 -32 35 -31 -2 -41 6 -26 22 4 4 21 6 38 4
28 -3 30 -6 33 -50z m1036 46 c29 -11 17 -19 -29 -20 -45 -1 -61 10 -27 19 27
7 39 7 56 1z m126 -15 c0 -5 -18 -9 -40 -9 -26 0 -40 5 -40 13 0 9 12 11 40 9
22 -2 40 -8 40 -13z m100 11 c0 -5 -16 -10 -35 -10 -19 0 -35 5 -35 10 0 6 16
10 35 10 19 0 35 -4 35 -10z m128 -34 c2 -21 -1 -43 -7 -49 -8 -8 -11 1 -11
31 0 41 -1 42 -35 42 -19 0 -35 5 -35 11 0 6 17 9 43 7 41 -3 42 -4 45 -42z
m-3124 25 c6 -9 -73 -21 -88 -13 -14 8 17 22 51 22 17 0 34 -4 37 -9z m116 -1
c0 -5 -21 -10 -46 -10 -27 0 -43 4 -39 10 3 6 24 10 46 10 21 0 39 -4 39 -10z
m238 -29 c2 -18 -1 -38 -7 -44 -8 -8 -11 0 -11 26 0 36 -1 37 -35 37 -19 0
-35 5 -35 11 0 6 17 9 43 7 40 -3 42 -5 45 -37z m805 31 c4 -1 7 -6 7 -11 0
-5 -15 -8 -32 -7 -32 1 -33 0 -36 -42 -4 -55 -22 -45 -22 13 0 50 18 60 83 47z
m111 -1 c6 -10 -64 -21 -78 -13 -12 7 21 20 51 21 12 1 24 -3 27 -8z m116 -1
c0 -5 -18 -10 -40 -10 -22 0 -40 5 -40 10 0 6 18 10 40 10 22 0 40 -4 40 -10z
m235 0 c4 -6 -12 -10 -39 -10 -25 0 -46 5 -46 10 0 6 18 10 39 10 22 0 43 -4
46 -10z m925 -3 c0 -7 -13 -12 -32 -12 -31 0 -33 -2 -35 -35 -2 -54 -3 -56
-13 -40 -11 17 -13 83 -3 93 12 13 83 8 83 -6z m120 3 c0 -5 -20 -10 -45 -10
-25 0 -45 5 -45 10 0 6 20 10 45 10 25 0 45 -4 45 -10z m-2890 -10 c0 -5 -18
-13 -40 -16 -37 -6 -40 -9 -40 -40 0 -19 -5 -34 -11 -34 -6 0 -9 17 -7 42 2
35 7 43 28 49 38 11 70 10 70 -1z m110 0 c0 -5 -20 -10 -45 -10 -25 0 -45 5
-45 10 0 6 20 10 45 10 25 0 45 -4 45 -10z m988 -82 c-23 -8 -28 -16 -28 -43
0 -18 6 -36 13 -38 6 -3 2 -6 -10 -6 -21 -1 -23 4 -23 49 l0 50 38 -1 c36 -1
37 -1 10 -11z m2469 -1 c20 -11 21 -15 10 -36 -7 -14 -19 -26 -27 -28 -10 -3
-9 -1 3 7 25 16 21 37 -10 54 -16 8 -21 15 -13 15 8 0 25 -5 37 -12z m-2995
-29 c4 -38 3 -68 -3 -68 -4 0 -9 12 -11 28 -2 22 -8 27 -30 27 -16 -1 -28 5
-28 12 0 17 69 18 72 1z m1396 -30 c2 -22 -1 -38 -7 -38 -6 0 -11 14 -11 30 0
27 -3 30 -30 30 -16 0 -30 5 -30 11 0 6 16 9 38 7 35 -3 37 -5 40 -40z m1386
20 c9 -34 7 -58 -4 -58 -5 0 -10 14 -10 31 0 29 -2 31 -30 27 -20 -3 -30 0
-30 9 0 8 12 13 34 13 26 0 35 -5 40 -22z m-581 -3 c1 -5 -13 -11 -30 -13 -29
-3 -33 -7 -33 -33 0 -16 -4 -29 -10 -29 -5 0 -10 18 -10 39 0 36 3 40 28 44
38 6 53 4 55 -8z m-2783 -5 c0 -5 -16 -10 -35 -10 -32 0 -35 -2 -35 -30 0 -16
-4 -30 -10 -30 -5 0 -10 18 -10 40 l0 40 45 0 c25 0 45 -4 45 -10z m1390 -6
c0 -8 -5 -12 -10 -9 -22 14 -50 -6 -50 -36 0 -16 -4 -29 -10 -29 -11 0 -14 73
-3 83 3 4 21 7 40 7 23 0 33 -5 33 -16z m-1237 -116 c2 -49 1 -88 -3 -88 -4 0
-7 46 -7 103 -2 119 4 111 10 -15z m219 12 c4 -63 3 -82 -3 -55 -8 39 -12 162
-5 154 2 -2 6 -47 8 -99z m1836 91 c16 -10 12 -63 -4 -68 -7 -2 -10 5 -7 20 4
18 -2 29 -18 41 -22 15 -22 16 -4 16 11 0 26 -4 33 -9z m-661 -154 c-2 -23 -3
-1 -3 48 0 50 1 68 3 42 2 -26 2 -67 0 -90z m1390 36 c-2 -21 -4 -6 -4 32 0
39 2 55 4 38 2 -18 2 -50 0 -70z m232 40 c-1 -62 -6 -56 -11 15 -2 23 0 42 4
42 5 0 7 -26 7 -57z m-3462 31 c-3 -3 -12 -4 -19 -1 -8 3 -5 6 6 6 11 1 17 -2
13 -5z m883 -64 c0 -27 -4 -50 -10 -50 -5 0 -10 16 -10 35 0 32 -2 35 -30 35
-20 0 -30 5 -30 15 0 11 11 15 40 15 l40 0 0 -50z m2790 5 c0 -25 -4 -45 -10
-45 -5 0 -9 3 -9 8 6 35 -3 52 -26 52 -29 0 -34 16 -7 23 47 12 52 9 52 -38z
m-1603 -57 c-2 -18 -4 -4 -4 32 0 36 2 50 4 33 2 -18 2 -48 0 -65z m211 45 c2
-26 -1 -43 -7 -43 -6 0 -11 18 -11 39 0 39 0 40 -30 31 -16 -5 -30 -5 -30 -1
0 15 15 22 45 19 28 -3 30 -6 33 -45z m-1998 27 c0 -5 -13 -10 -30 -10 -27 0
-30 -3 -30 -29 0 -17 -4 -33 -10 -36 -6 -4 -10 12 -10 39 l0 46 40 0 c22 0 40
-4 40 -10z m910 1 c0 -5 -10 -11 -22 -13 -16 -2 -26 -13 -33 -35 -5 -18 -13
-33 -18 -33 -14 0 0 72 15 82 18 11 58 10 58 -1z m1885 -1 c4 -6 -8 -10 -29
-10 -33 0 -36 -2 -36 -30 0 -16 -4 -30 -10 -30 -11 0 -14 63 -3 73 10 11 71 8
78 -3z m-1395 -16 c0 -8 -5 -12 -11 -9 -5 4 -21 4 -35 1 -17 -5 -24 -13 -24
-32 0 -14 -4 -23 -10 -19 -11 7 -14 58 -3 68 3 4 24 7 45 7 28 0 38 -4 38 -16z
m1084 3 c13 -9 16 -20 11 -40 -4 -15 -11 -27 -17 -27 -5 0 -6 10 -3 22 6 16 1
26 -16 39 -17 13 -20 19 -8 19 8 0 23 -6 33 -13z m703 -74 c-3 -10 -5 -4 -5
12 0 17 2 24 5 18 2 -7 2 -21 0 -30z m-3192 -23 c3 -5 -3 -10 -14 -10 -35 0
-51 -12 -51 -36 0 -13 -4 -24 -10 -24 -11 0 -14 63 -3 73 10 11 71 8 78 -3z
m605 -24 c0 -19 -4 -38 -10 -41 -6 -4 -10 6 -10 23 0 26 -3 28 -30 24 -23 -3
-30 0 -30 12 0 12 10 16 40 16 39 0 40 -1 40 -34z m2200 24 c0 -5 -16 -10 -36
-10 -34 0 -36 -2 -31 -25 3 -16 0 -24 -7 -22 -6 2 -12 18 -14 35 -3 32 -3 32
42 32 25 0 46 -4 46 -10z m598 -34 c2 -25 0 -36 -7 -31 -6 3 -11 17 -11 31 0
20 -5 24 -31 24 -19 0 -28 4 -24 11 4 5 21 9 38 7 29 -3 32 -6 35 -42z m-1998
24 c0 -5 -16 -10 -35 -10 -31 0 -35 -3 -35 -25 0 -14 -4 -25 -10 -25 -5 0 -10
16 -10 35 0 35 0 35 45 35 25 0 45 -4 45 -10z m600 -2 c0 -7 3 -23 6 -35 5
-16 2 -23 -8 -23 -11 0 -14 7 -10 25 4 22 1 25 -27 25 -17 0 -31 5 -31 10 0 6
16 10 35 10 21 0 35 -5 35 -12z m-1897 -66 c-21 -22 -26 -21 -17 2 3 9 12 16
20 16 11 0 10 -4 -3 -18z m161 9 c3 -5 -5 -11 -19 -13 -20 -4 -23 -3 -14 8 13
16 25 18 33 5z m166 -21 c0 -14 -9 -12 -26 4 -20 21 -17 28 6 16 11 -6 20 -15
20 -20z m1071 3 c-12 -20 -14 -14 -5 12 4 9 9 14 11 11 3 -2 0 -13 -6 -23z
m173 19 c2 -4 -4 -9 -15 -9 -11 -1 -17 2 -14 8 7 11 22 12 29 1z m157 -9 c13
-17 13 -17 -6 -3 -11 8 -22 16 -24 17 -2 2 0 3 6 3 6 0 17 -8 24 -17z m1394 6
c11 -17 -1 -21 -15 -4 -8 9 -8 15 -2 15 6 0 14 -5 17 -11z m-3357 -31 c17 -17
15 -33 -2 -19 -8 6 -19 10 -26 9 -7 -2 -15 3 -17 10 -6 16 29 16 45 0z m110 6
c34 -10 26 -24 -13 -24 -28 0 -38 -5 -45 -22 -8 -21 -9 -20 -9 9 -1 29 4 35
39 42 3 0 15 -2 28 -5z m622 -30 c0 -21 -4 -33 -10 -29 -6 4 -9 14 -8 23 2 14
-4 16 -29 14 -18 -2 -33 1 -33 7 0 5 15 12 33 14 17 2 35 5 40 5 4 1 7 -14 7
-34z m110 26 c0 -5 -18 -10 -39 -10 -22 0 -43 5 -46 10 -4 6 12 10 39 10 25 0
46 -4 46 -10z m87 -5 c2 -6 -9 -10 -24 -9 -44 2 -50 5 -28 14 25 11 47 8 52
-5z m107 6 c3 -5 -10 -11 -29 -13 -19 -2 -35 -1 -35 3 0 16 55 25 64 10z m201
0 c16 -7 13 -9 -17 -13 -37 -4 -51 5 -25 15 16 7 19 7 42 -2z m1189 0 c3 -5
-8 -11 -25 -13 -35 -5 -50 8 -17 15 13 2 26 5 30 6 4 0 9 -3 12 -8z m103 -7
c4 -11 -44 -17 -59 -8 -14 9 12 24 36 20 11 -1 21 -7 23 -12z m103 6 c0 -5
-16 -10 -36 -10 -21 0 -33 4 -29 10 3 6 19 10 36 10 16 0 29 -4 29 -10z m85 0
c4 -6 -7 -10 -24 -10 -17 0 -31 5 -31 10 0 6 11 10 24 10 14 0 28 -4 31 -10z
m99 1 c3 -5 -10 -11 -29 -13 -34 -4 -43 1 -28 15 9 10 51 8 57 -2z m121 -1 c4
-6 -8 -10 -29 -10 -30 0 -36 -4 -36 -21 0 -30 -24 -18 -28 14 -3 26 -1 27 42
27 25 0 48 -4 51 -10z m605 -26 c0 -13 -4 -24 -10 -24 -5 0 -10 7 -10 15 0 10
-10 15 -30 15 -40 0 -38 18 3 22 42 5 47 2 47 -28z m88 18 c2 -8 -8 -12 -27
-12 -33 0 -42 16 -13 23 23 6 35 3 40 -11z m-2493 -2 c-28 -12 -67 -12 -60 0
3 6 23 10 43 9 30 0 33 -2 17 -9z m205 0 c0 -5 -13 -10 -30 -10 -16 0 -30 5
-30 10 0 6 14 10 30 10 17 0 30 -4 30 -10z m70 0 c0 -5 -9 -10 -20 -10 -11 0
-20 5 -20 10 0 6 9 10 20 10 11 0 20 -4 20 -10z m115 0 c-3 -5 -19 -10 -36
-10 -19 0 -29 -5 -29 -15 0 -8 -4 -15 -10 -15 -5 0 -10 11 -10 25 0 23 4 25
46 25 27 0 43 -4 39 -10z m705 1 c0 -5 -13 -11 -30 -13 -20 -3 -30 0 -30 9 0
8 12 13 30 13 17 0 30 -4 30 -9z m100 0 c0 -4 -13 -8 -30 -7 -39 1 -39 16 0
16 17 0 30 -4 30 -9z m-190 -21 c0 -11 -4 -20 -10 -20 -5 0 -10 6 -10 13 0 9
-10 12 -30 9 -18 -3 -30 0 -30 7 0 6 17 11 40 11 33 0 40 -3 40 -20z"/>
<path d="M707 592 c-37 -13 -66 -27 -63 -29 2 -2 30 2 62 10 63 16 197 15 217
0 7 -6 58 -7 132 -2 191 13 338 13 362 1 27 -15 153 -15 213 -1 74 18 230 19
264 1 23 -11 57 -13 145 -10 64 2 123 8 131 13 8 5 52 10 98 10 45 0 82 4 82
8 0 4 0 12 0 17 0 7 -268 10 -787 9 l-788 -1 -68 -26z"/>
<path d="M2434 603 c5 -31 46 -43 156 -43 71 0 112 4 125 13 26 18 330 17 362
-1 27 -15 235 -16 250 -1 10 10 48 9 361 -7 86 -4 117 -2 129 8 21 17 70 18
112 1 20 -8 73 -13 135 -13 l101 1 -90 29 -90 30 -777 0 c-734 0 -776 -1 -774
-17z"/>
</g>
</svg>
